<?xml version="1.0" encoding="UTF-8" standalone="no"?>
<!-- Created with Inkscape (http://www.inkscape.org/) -->

<svg
   xmlns:dc="http://purl.org/dc/elements/1.1/"
   xmlns:cc="http://creativecommons.org/ns#"
   xmlns:rdf="http://www.w3.org/1999/02/22-rdf-syntax-ns#"
   xmlns:svg="http://www.w3.org/2000/svg"
   xmlns="http://www.w3.org/2000/svg"
   xmlns:sodipodi="http://sodipodi.sourceforge.net/DTD/sodipodi-0.dtd"
   xmlns:inkscape="http://www.inkscape.org/namespaces/inkscape"
   width="1280"
   height="800"
   viewBox="0 0 338.66666 211.66667"
   version="1.1"
   id="svg8"
   inkscape:version="0.92.2 2405546, 2018-03-11"
   sodipodi:docname="background.svg"
   inkscape:export-filename="/home/christi/go/src/github.com/chrischdi/gophotobooth/img/background.jpg.png"
   inkscape:export-xdpi="96"
   inkscape:export-ydpi="96">
  <defs
     id="defs2" />
  <sodipodi:namedview
     id="base"
     pagecolor="#ffffff"
     bordercolor="#666666"
     borderopacity="1.0"
     inkscape:pageopacity="0.0"
     inkscape:pageshadow="2"
     inkscape:zoom="0.56903347"
     inkscape:cx="181.14314"
     inkscape:cy="612.74681"
     inkscape:document-units="mm"
     inkscape:current-layer="layer1"
     showgrid="false"
     units="px"
     inkscape:snap-text-baseline="true"
     inkscape:window-width="2556"
     inkscape:window-height="1385"
     inkscape:window-x="0"
     inkscape:window-y="53"
     inkscape:window-maximized="0" />
  <metadata
     id="metadata5">
    <rdf:RDF>
      <cc:Work
         rdf:about="">
        <dc:format>image/svg+xml</dc:format>
        <dc:type
           rdf:resource="http://purl.org/dc/dcmitype/StillImage" />
        <dc:title />
      </cc:Work>
    </rdf:RDF>
  </metadata>
  <g
     inkscape:groupmode="layer"
     id="layer2"
     inkscape:label="Background"
     style="display:inline">
    <rect
       style="opacity:1;fill:#000000;fill-opacity:1;fill-rule:nonzero;stroke:#f4e3b6;stroke-width:0.87075454;stroke-miterlimit:4;stroke-dasharray:none;stroke-opacity:1"
       id="rect1379"
       width="348.21124"
       height="217.3055"
       x="-4.7722836"
       y="-2.8194127" />
  </g>
  <g
     inkscape:label="Camera"
     inkscape:groupmode="layer"
     id="layer1"
     transform="translate(0,-85.333317)"
     style="display:inline">
    <path
       transform="translate(0,85.333317)"
       style="display:inline;fill:#ffcc00;fill-opacity:1;stroke-width:0.14431122"
       d="m 115.63813,126.94122 c -7.0624,-0.88333 -12.636,-6.37086 -13.6117,-13.40148 -0.2158,-1.55534 -0.2158,-54.664104 0,-56.219452 0.3185,-2.294492 1.1774,-4.5859 2.4606,-6.564092 0.7833,-1.207442 3.0992,-3.528633 4.304,-4.313661 1.9737,-1.286138 4.2599,-2.147035 6.5492,-2.466169 0.7105,-0.09905 5.0326,-0.154936 11.9815,-0.154936 h 10.8701 l 3.8139,-7.621019 c 2.0976,-4.191557 4.1564,-8.141127 4.575,-8.776815 1.5054,-2.286015 3.3172,-3.70987 5.3241,-4.184006 1.3884,-0.32801 33.4687,-0.32801 34.8571,0 2.0068,0.474087 3.8478,1.919052 5.3311,4.184006 0.4162,0.635688 2.4719,4.585258 4.5682,8.776815 l 3.8113,7.621019 h 10.8712 c 6.9499,0 11.2722,0.05589 11.9827,0.154936 2.2893,0.319134 4.5756,1.180031 6.5493,2.466169 1.2048,0.785028 3.5207,3.106219 4.304,4.313661 1.2832,1.978192 2.1422,4.2696 2.4605,6.564092 0.2158,1.555348 0.2158,54.664112 0,56.219452 -0.4577,3.29892 -1.8887,6.24816 -4.2126,8.68237 -2.3499,2.46135 -5.3651,4.04253 -8.7623,4.5947 -1.2014,0.19528 -7.4614,0.21821 -54.4761,0.19957 -29.2153,-0.0116 -53.3134,-0.0454 -53.5511,-0.0752 z m 57.1837,-10.51921 c 8.4873,-0.99504 15.986,-5.23282 21.184,-11.97187 10.4657,-13.568036 7.9184,-33.203658 -5.6733,-43.731678 -11.5567,-8.951846 -27.7899,-8.602243 -39.0358,0.840684 -9.7405,8.178931 -13.5286,21.636233 -9.4987,33.743872 4.6373,13.932672 18.5315,22.818082 33.0238,21.118992 z m -6.0558,-15.61957 c -4.0843,-0.68656 -7.9641,-3.168185 -10.2671,-6.567183 -0.8898,-1.313298 -1.8308,-3.399071 -2.2596,-5.008829 -0.3336,-1.251879 -0.3764,-1.683761 -0.3764,-3.796402 0,-2.124449 0.042,-2.541023 0.3843,-3.828568 0.4585,-1.724359 1.6704,-4.248726 2.6768,-5.57574 0.8918,-1.175847 2.4387,-2.652417 3.6239,-3.459134 1.3104,-0.891841 3.3915,-1.834925 4.9976,-2.26474 1.249,-0.334261 1.68,-0.377169 3.7878,-0.377169 2.108,0 2.5388,0.04291 3.7879,0.377169 1.6061,0.429815 3.6871,1.372899 4.9975,2.26474 1.1853,0.806717 2.7322,2.283287 3.624,3.459134 1.0063,1.327014 2.2183,3.851381 2.6769,5.57574 0.3423,1.287545 0.3841,1.704119 0.3841,3.828568 0,2.112641 -0.043,2.544523 -0.3762,3.796402 -0.6922,2.597788 -2.0214,5.006645 -3.8137,6.910849 -3.5235,3.743506 -8.7853,5.516163 -13.8478,4.665163 z m -47.2763,-36.589643 c 0.7781,-0.337889 1.8739,-1.295113 2.3548,-2.057087 1.799,-2.850256 0.3049,-6.729357 -2.9671,-7.70324 -1.04,-0.309526 -1.9375,-0.287845 -3.11,0.07514 -0.846,0.261888 -1.1157,0.437953 -1.9461,1.270245 -0.8305,0.832293 -1.0062,1.102652 -1.2675,1.950543 -0.3806,1.235444 -0.3833,2.108405 -0.01,3.319548 0.4809,1.560299 2.0205,3.005574 3.654,3.429905 0.7485,0.194461 2.5461,0.03881 3.2919,-0.28505 z"
       id="path1008"
       inkscape:connector-curvature="0" />
  </g>
  <g
     inkscape:groupmode="layer"
     id="layer3"
     inkscape:label="Text"
     style="display:inline">
    <flowRoot
       xml:space="preserve"
       id="flowRoot1384"
       style="font-style:normal;font-weight:normal;font-size:40px;line-height:25px;font-family:Sans;letter-spacing:0px;word-spacing:0px;fill:#ffcc00;fill-opacity:1;stroke:none;stroke-width:1px;stroke-linecap:butt;stroke-linejoin:miter;stroke-opacity:1"
       transform="matrix(1.0398697,0,0,1.0398673,-263.73787,-435.86353)"><flowRegion
         id="flowRegion1386"
         style="fill:#ffcc00;fill-opacity:1"><rect
           id="rect1388"
           width="792.57202"
           height="145.86137"
           x="302.26694"
           y="560.99823"
           style="fill:#ffcc00;fill-opacity:1" /></flowRegion><flowPara
         id="flowPara1390">Golden Eye</flowPara></flowRoot>  </g>
</svg>
